<?xml version="1.0" encoding="UTF-8" standalone="no"?>
<!-- Created with Inkscape (http://www.inkscape.org/) -->

<svg
   width="48"
   height="48"
   viewBox="0 0 12.7 12.7"
   version="1.1"
   id="svg5"
   xml:space="preserve"
   inkscape:version="1.2.2 (b0a8486541, 2022-12-01)"
   sodipodi:docname="add_gallery.svg"
   inkscape:export-filename="add_gallery.png"
   inkscape:export-xdpi="96"
   inkscape:export-ydpi="96"
   xmlns:inkscape="http://www.inkscape.org/namespaces/inkscape"
   xmlns:sodipodi="http://sodipodi.sourceforge.net/DTD/sodipodi-0.dtd"
   xmlns="http://www.w3.org/2000/svg"
   xmlns:svg="http://www.w3.org/2000/svg"><sodipodi:namedview
     id="namedview7"
     pagecolor="#ffffff"
     bordercolor="#000000"
     borderopacity="0.25"
     inkscape:showpageshadow="2"
     inkscape:pageopacity="0.0"
     inkscape:pagecheckerboard="0"
     inkscape:deskcolor="#d1d1d1"
     inkscape:document-units="mm"
     showgrid="false"
     inkscape:zoom="3.3638608"
     inkscape:cx="39.686541"
     inkscape:cy="-16.052983"
     inkscape:window-width="1920"
     inkscape:window-height="1163"
     inkscape:window-x="1920"
     inkscape:window-y="0"
     inkscape:window-maximized="1"
     inkscape:current-layer="layer1" /><defs
     id="defs2" /><g
     inkscape:label="Layer 1"
     inkscape:groupmode="layer"
     id="layer1"><g
       id="g4751"><g
         style="fill:#000000"
         id="g4283"
         transform="matrix(0.41325003,0,0,0.41325003,-101.88959,-99.064801)"><g
           id="g4271"
           transform="translate(-0.06729249)">
	<g
   id="g4269"
   transform="translate(0.03643071,-2.3462263)">
		<g
   id="g4267"
   transform="translate(-0.60682232,-1.2808254)">
			
			<g
   id="g4755"
   transform="matrix(1.5285023,0,0,1.4160667,-145.25282,-110.18557)"><path
     d="m 275.7632,253.56366 h -12.04292 c -0.27638,0 -0.50277,0.24169 -0.50277,0.54381 v 0.54382 h -0.50277 c -0.27638,0 -0.50277,0.2417 -0.50277,0.54382 v 0.54381 h -0.50277 c -0.27637,0 -0.50276,0.2417 -0.50276,0.54382 v 10.58374 c 0,0.29894 0.22345,0.54382 0.50276,0.54382 h 12.04293 c 0.27637,0 0.50277,-0.2417 0.50277,-0.54382 v -0.54381 h 0.50276 c 0.27638,0 0.50277,-0.2417 0.50277,-0.54382 v -0.54382 h 0.50277 c 0.27638,0 0.50277,-0.24169 0.50277,-0.54381 v -10.58375 c 0,-0.30212 -0.22345,-0.54381 -0.50277,-0.54381 z m -2.00813,8.77738 -1.31426,-1.62827 c -0.1,-0.12403 -0.27637,-0.12403 -0.37928,0 l -1.58769,1.96537 -4.32792,-4.15971 c -0.0941,-0.0922 -0.23816,-0.0922 -0.33224,0 l -4.0986,3.94028 v -5.90883 c 0,-0.14947 0.11173,-0.27032 0.24992,-0.27032 h 11.54015 c 0.13819,0 0.24992,0.12085 0.24992,0.27032 z m 0.75562,3.43463 h -0.24991 v -9.49929 c 0,-0.29894 -0.22346,-0.54382 -0.50277,-0.54382 h -11.04033 v -0.27032 c 0,-0.14947 0.11173,-0.27031 0.24992,-0.27031 h 11.54015 c 0.13819,0 0.24991,0.12084 0.24991,0.27031 l 0.003,10.04311 c 0,0.14947 -0.11173,0.27032 -0.24992,0.27032 z m 1.0026,-1.08763 h -0.24992 v -9.49611 c 0,-0.29894 -0.22345,-0.54382 -0.50276,-0.54382 h -11.04033 v -0.27032 c 0,-0.14947 0.11172,-0.27032 0.24991,-0.27032 h 11.54016 c 0.13818,0 0.24991,0.12085 0.24991,0.27032 v 10.03993 h 0.003 c 0,0.14947 -0.11173,0.27032 -0.24992,0.27032 z"
     id="path4263"
     style="stroke-width:0.0305784" /><path
     d="m 270.9828,256.84862 c -0.89752,0 -1.62795,0.65441 -1.62795,1.45853 0,0.80412 0.73043,1.45853 1.62795,1.45853 0.89752,0 1.62795,-0.65441 1.62795,-1.45853 0,-0.80412 -0.73043,-1.45853 -1.62795,-1.45853 z"
     id="path4265"
     style="stroke-width:0.045188" /></g>
		</g>
	</g>
</g></g></g><g
       id="path247"><path
         style="color:#000000;fill:#ff0024;stroke-width:0.358462;stroke-linecap:round;stroke-miterlimit:3.5;-inkscape-stroke:none"
         d="M 4.643707,8.3859317 C 2.1750238,7.950608 0.67964637,6.4708257 1.2349597,2.7904385 1.2880879,5.7018088 2.768268,7.2247632 4.643707,8.3859317 Z"
         id="path313" /><path
         style="color:#000000;fill:#ff0024;stroke-linecap:round;stroke-miterlimit:3.5;-inkscape-stroke:none"
         d="m 1.0585937,2.7636719 c -0.0017,0.011289 0.00167,0.018046 0,0.029297 h -0.00195 c 5.41e-5,0.00296 0.0019,0.00485 0.00195,0.00781 C 0.78686884,4.6456784 1.015877,5.9795537 1.6582031,6.90625 2.3054863,7.8400979 3.350832,8.3398817 4.6132812,8.5625 l 0.125,-0.328125 C 2.886594,7.0879123 1.4661034,5.6388982 1.4140625,2.7871094 Z M 1.3691406,4.8046875 C 1.8214201,6.2384674 2.8100791,7.1583758 3.90625,7.9589844 3.0927927,7.7018012 2.3925042,7.3370258 1.953125,6.703125 1.6233935,6.227415 1.445312,5.5737767 1.3691406,4.8046875 Z"
         id="path315" /><g
         id="g303"><g
           id="path305"><path
             style="color:#000000;fill:#ff0024;fill-rule:evenodd;stroke-width:0.358462;-inkscape-stroke:none"
             d="M 5.5229814,8.9303299 3.7330828,8.8761405 4.6765807,7.3522681 Z"
             id="path309" /><path
             style="color:#000000;fill:#ff0024;fill-rule:evenodd;-inkscape-stroke:none"
             d="M 4.6875,6.9941406 3.4179688,9.0449219 5.828125,9.1191406 5.6816406,8.8457031 Z M 4.6660156,7.7089844 5.21875,8.7421875 4.0488281,8.7070313 Z"
             id="path311" /></g></g></g></g></svg>
