<svg viewBox="0 0 100 100" xmlns="http://www.w3.org/2000/svg">
  <path
     d="m 54.17374,39.742055 c 0.565956,-7.923377 2.759034,-22.265526 2.900523,-23.326693 0.141488,-1.061166 0.990422,-5.588811 3.749455,-8.9845444 2.759033,-3.3957332 7.286677,-4.5983886 7.286677,-4.5983886 0.07075,0 -1.131911,0.2122332 -1.131911,3.2542441 0,3.0420115 3.607967,5.1643449 5.871788,5.1643449 2.263824,0 6.225511,-1.9808443 6.225511,-5.3765778 0,-3.3957331 -4.669132,-5.37657751 -6.508488,-5.37657751 -1.839356,0 -4.810622,0 -7.357421,0.99042221 -2.546801,0.9904222 -8.312473,4.669133 -10.717783,9.4797551 -2.405312,4.810622 -3.714084,10.470178 -4.987484,18.959512 -1.2734,8.489332 -2.688288,21.892829 -3.254244,29.816206 -0.565955,7.923378 -3.1835,22.77971 -3.324989,23.840877 -0.141488,1.061166 -0.990422,5.588811 -3.749455,8.984544 -2.759033,3.395733 -7.286677,4.598388 -7.286677,4.598388 -0.07075,0 1.131911,-0.212232 1.131911,-3.254244 0,-3.042011 -3.607967,-5.164344 -5.871789,-5.164344 -2.263822,0 -6.22551,1.980844 -6.22551,5.376577 0,3.395733 4.669133,5.376581 6.508488,5.376581 1.839355,0 4.810622,0 7.357421,-0.99042 2.546801,-0.990428 8.312473,-4.669138 10.717784,-9.47976 2.405311,-4.810623 3.714083,-10.470177 4.987483,-18.95951 0.572874,-3.819168 3.112756,-24.104882 3.67871,-30.330392 z"
     stroke="#000000"/>
</svg>
