<svg width="1200" height="240" viewBox="0 0 1200 240" class="w-full" style="background: rgb(255, 255, 255);">
    <defs>
        <pattern id="dotPattern" x="0" y="0" width="20" height="20" patternUnits="userSpaceOnUse">
            <circle cx="2" cy="2" r="1" fill="#E2E8F0" opacity="0.2"></circle>
        </pattern>
        <lineargradient id="textGradient" x1="0%" y1="0%" x2="100%" y2="0%">
            <stop offset="0%" stop-color="#FF1493">
                <animate attributeName="stop-color" values="#FF1493;#00F5FF;#FF1493" dur="4s" repeatCount="indefinite"></animate>
            </stop>
            <stop offset="50%" stop-color="#00F5FF">
                <animate attributeName="stop-color" values="#00F5FF;#4B0082;#00F5FF" dur="4s" repeatCount="indefinite"></animate>
            </stop>
            <stop offset="100%" stop-color="#4B0082">
                <animate attributeName="stop-color" values="#4B0082;#FF1493;#4B0082" dur="4s" repeatCount="indefinite"></animate>
            </stop>
        </lineargradient>
    </defs>
    <rect width="100%" height="100%" fill="url(#dotsPattern)"></rect>
    <g>
        <line x1="0" y1="0" x2="0" y2="240" stroke="#ffffff" stroke-width="0.5" opacity="0.1"></line>
        <line x1="100" y1="0" x2="100" y2="240" stroke="#ffffff" stroke-width="0.5" opacity="0.1"></line>
        <line x1="200" y1="0" x2="200" y2="240" stroke="#ffffff" stroke-width="0.5" opacity="0.1"></line>
        <line x1="300" y1="0" x2="300" y2="240" stroke="#ffffff" stroke-width="0.5" opacity="0.1"></line>
        <line x1="400" y1="0" x2="400" y2="240" stroke="#ffffff" stroke-width="0.5" opacity="0.1"></line>
        <line x1="500" y1="0" x2="500" y2="240" stroke="#ffffff" stroke-width="0.5" opacity="0.1"></line>
        <line x1="600" y1="0" x2="600" y2="240" stroke="#ffffff" stroke-width="0.5" opacity="0.1"></line>
        <line x1="700" y1="0" x2="700" y2="240" stroke="#ffffff" stroke-width="0.5" opacity="0.1"></line>
        <line x1="800" y1="0" x2="800" y2="240" stroke="#ffffff" stroke-width="0.5" opacity="0.1"></line>
        <line x1="900" y1="0" x2="900" y2="240" stroke="#ffffff" stroke-width="0.5" opacity="0.1"></line>
        <line x1="1000" y1="0" x2="1000" y2="240" stroke="#ffffff" stroke-width="0.5" opacity="0.1"></line>
        <line x1="1100" y1="0" x2="1100" y2="240" stroke="#ffffff" stroke-width="0.5" opacity="0.1"></line>
        <line x1="0" y1="0" x2="1200" y2="0" stroke="#ffffff" stroke-width="0.5" opacity="0.1"></line>
        <line x1="0" y1="50" x2="1200" y2="50" stroke="#ffffff" stroke-width="0.5" opacity="0.1"></line>
        <line x1="0" y1="100" x2="1200" y2="100" stroke="#ffffff" stroke-width="0.5" opacity="0.1"></line>
        <line x1="0" y1="150" x2="1200" y2="150" stroke="#ffffff" stroke-width="0.5" opacity="0.1"></line>
        <line x1="0" y1="200" x2="1200" y2="200" stroke="#ffffff" stroke-width="0.5" opacity="0.1"></line>
    </g><text x="80" y="96" font-family="Arial, sans-serif" font-size="64" font-weight="bold" fill="url(#textGradient)" class="select-none">pdFLEX</text><text
          x="80" y="156" font-family="Arial, sans-serif" font-size="22" fill="#00F5FF" opacity="0.8" class="select-none">✁ Collection of tools for working with
        PDF files with Python.</text>
</svg>
