<svg xmlns="http://www.w3.org/2000/svg" viewBox="0 0 3447 1252" width="3447" height="1252"><defs></defs><g transform="matrix(1,0,0,1,0.49994337,-406.83720493)">
<g transform="matrix(1,0,0,1,0,406)">
	<g transform="matrix(1,0,0,1,1723.5,829.5)">
		<g transform="matrix(1,0,0,1,0,-406)">
			<g>
				<g>
					<g>
						<g>
							<g>
								<g>
									<g>
										<g>
											<path d="M21744.099609,5995.700195C20680.800781,6998.899902 19538,9601.519531 18423.300781,11179 C18298.800781,11199.599609 18175.199219,11190.799805 18052.900391,11148.299805 C17987.199219,11125.5 17921.800781,11092.900391 17856.699219,11051.599609 C18695.300781,9606.889648 19534.199219,7970 20328.099609,7237 C20328.099609,7237 20428.300781,7149.100098 20428.300781,7149.100098 C20428.300781,7149.100098 21744.099609,5995.700195 21744.099609,5995.700195 " transform="matrix(0.133333325,0,0,-0.133333325,-1866.179931641,1405.834472656)" fill="#3a3b40"/>
										</g>
									</g>
									<g>
										<g>
											<path d="M21603.199219,7002.200195C21897.699219,6491.100098 22190.300781,6003.399902 22478.900391,5587.600098 C23550.300781,5474.5 24520.599609,7776.200195 25478.699219,10053.099609 C25478.699219,10053.099609 24043.400391,11312.5 24043.400391,11312.5 C23251.099609,9429.889648 22458.900391,7547.299805 21603.199219,7002.200195 " transform="matrix(0.133333325,0,0,-0.133333325,-1866.179931641,1405.834472656)" fill="#3a3b40"/>
										</g>
									</g>
									<g>
										<g>
											<path d="M12612,6725.899902C13945,7008.399902 15211.900391,11923.299805 16614.599609,12410.400391 C16889.400391,12505.799805 17170.199219,12431.400391 17455.099609,12234.400391 C17455.099609,12234.400391 16307.900391,13255.599609 16307.900391,13255.599609 C16307.900391,13255.599609 16154.299805,13392.299805 16154.299805,13392.299805 C15822.200195,13665.299805 15495.200195,13783.099609 15176.299805,13672.400391 C13942.599609,13244 12830.200195,9394.19043 11673.299805,8280.490234 C11995.900391,7755.399902 12308,7202.200195 12612,6725.899902 " transform="matrix(0.133333325,0,0,-0.133333325,-1866.179931641,1405.834472656)" fill="#3a3b40"/>
										</g>
									</g>
									<g>
										<g>
											<path d="M3628.669922,8593.110352C3227.290039,8957.25 2865.97998,9682.030273 2504.659912,10406.799805 C2504.659912,10406.799805 1066.349976,11668.900391 1066.349976,11668.900391 C1438.219971,10922.900391 1810.089966,10177 2225.629883,9824.19043 C2225.629883,9824.19043 3628.669922,8593.110352 3628.669922,8593.110352 " transform="matrix(0.133333325,0,0,-0.133333325,-1866.179931641,1405.834472656)" fill="#569daa"/>
										</g>
									</g>
									<g>
										<g>
											<path d="M3628.659912,8593.120117C3227.290039,8957.269531 2865.97998,9682.040039 2504.659912,10406.799805 C2504.659912,10406.799805 1066.349976,11668.900391 1066.349976,11668.900391 C1438.219971,10922.900391 1810.089966,10177 2225.629883,9824.19043 C2225.629883,9824.19043 3628.659912,8593.120117 3628.659912,8593.120117 " transform="matrix(0.133333325,0,0,-0.133333325,-1866.179931641,1405.834472656)" fill="#569daa"/>
										</g>
									</g>
									<g>
										<g>
											<path d="M3549.620117,8662.480469C3235.639893,8987.400391 2944.530029,9530.889648 2658.5,10099.5 C2658.48999,10099.5 2658.47998,10099.5 2658.469971,10099.599609 C2607.120117,10201.299805 2555.889893,10304.099609 2504.659912,10406.799805 C2504.659912,10406.799805 1066.349976,11668.900391 1066.349976,11668.900391 C1438.219971,10922.900391 1810.089966,10177 2225.629883,9824.19043 C2225.629883,9824.19043 3549.620117,8662.480469 3549.620117,8662.480469 " transform="matrix(0.133333325,0,0,-0.133333325,-1866.179931641,1405.834472656)" fill="#3a3b40"/>
										</g>
									</g>
									<g>
										<g>
											<path d="M4337.700195,8373.959961C5454.220215,8650.549805 6854.339844,11390.5 8086.790039,11510 C8304.639648,11531.099609 8526.69043,11486.400391 8741.469727,11375.900391 C8741.469727,11375.900391 7652.049805,12331.599609 7652.049805,12331.599609 C7652.049805,12331.599609 7533.569824,12435.5 7533.569824,12435.5 C7247.919922,12670.799805 6953.330078,12801.599609 6648.490234,12772 C5532.560059,12663.900391 4279.180176,10407.299805 3223.330078,9776.230469 C3223.330078,9776.230469 3942.969971,9144.780273 3942.969971,9144.780273 C4073.909912,8882.110352 4204.850098,8619.450195 4337.700195,8373.959961 " transform="matrix(0.133333325,0,0,-0.133333325,-1866.179931641,1405.834472656)" fill="#3a3b40"/>
										</g>
									</g>
									<g>
										<g>
											<path d="M11867,7068.200195C11212.900391,7724.600098 10528.400391,9169.639648 9785.719727,10235 C9699.669922,10251.700195 9612.80957,10256.400391 9525.099609,10247.900391 C9413.530273,10237.099609 9300.570312,10204.799805 9186.580078,10154.799805 C9700.139648,9288.240234 10188.299805,8460.879883 10661.900391,8130.700195 C10661.900391,8130.700195 11867,7068.200195 11867,7068.200195 " transform="matrix(0.133333325,0,0,-0.133333325,-1866.179931641,1405.834472656)" fill="#3a3b40"/>
										</g>
									</g>
								</g>
								<g>
									<g>
										<g>
											<path d="M13889.299805,5459.600098C15228.5,5303 16470.099609,10171 17856.699219,11051.599609 C17921.800781,11092.900391 17987.199219,11125.5 18052.900391,11148.299805 C18175.199219,11190.799805 18298.800781,11199.599609 18423.300781,11179 C18553.300781,11157.400391 18684.5,11103.700195 18816.5,11022.599609 C18816.5,11022.599609 17891.800781,11845.700195 17891.800781,11845.700195 C17891.800781,11845.700195 17455.099609,12234.400391 17455.099609,12234.400391 C17170.199219,12431.400391 16889.400391,12505.799805 16614.599609,12410.400391 C15211.900391,11923.299805 13945,7008.399902 12612,6725.899902 C12881.700195,6303.299805 13145.099609,5941.299805 13403.799805,5713.200195 C13567.400391,5569 13729,5478.299805 13889.299805,5459.600098 " transform="matrix(0.133333325,0,0,-0.133333325,-1866.179931641,1405.834472656)" fill="#0171b3"/>
										</g>
									</g>
									<g>
										<g>
											<path d="M21888.400391,5869.299805C21888.400391,5869.299805 23165.400391,4749.899902 23165.400391,4749.899902 C22939.800781,4966.200195 22710.599609,5253.700195 22478.900391,5587.600098 C22190.300781,6003.399902 21897.699219,6491.100098 21603.199219,7002.200195 C20672.699219,8617.110352 19722.900391,10465.799805 18816.5,11022.599609 C18684.5,11103.700195 18553.300781,11157.400391 18423.300781,11179 C19538,9601.519531 20680.800781,6998.899902 21744.099609,5995.700195 C21744.099609,5995.700195 21888.400391,5869.299805 21888.400391,5869.299805 " transform="matrix(0.133333325,0,0,-0.133333325,-1866.179931641,1405.834472656)" fill="#0171b3"/>
										</g>
									</g>
									<g>
										<g>
											<path d="M25478.699219,10053.099609C24520.599609,7776.200195 23550.300781,5474.5 22478.900391,5587.600098 C22710.599609,5253.700195 22939.800781,4966.200195 23165.400391,4749.899902 C23407,4518.200195 23644.599609,4368.299805 23876.900391,4330.899902 C24970.099609,4154.799805 25945,6471.600098 26920,8788.44043 C26920,8788.44043 25478.699219,10053.099609 25478.699219,10053.099609 " transform="matrix(0.133333325,0,0,-0.133333325,-1866.179931641,1405.834472656)" fill="#0171b3"/>
										</g>
									</g>
									<g>
										<g>
											<path d="M5489.029785,7099.399902C6549.339844,6905.299805 7931,9604.110352 9186.580078,10154.799805 C9300.570312,10204.799805 9413.530273,10237.099609 9525.099609,10247.900391 C9612.80957,10256.400391 9699.669922,10251.700195 9785.719727,10235 C10004.900391,10192.400391 10218.799805,10072.299805 10427.900391,9896.669922 C10427.900391,9896.669922 8741.469727,11375.900391 8741.469727,11375.900391 C8526.69043,11486.400391 8304.639648,11531.099609 8086.790039,11510 C6854.339844,11390.5 5454.220215,8650.549805 4337.700195,8373.959961 C4571.180176,7942.5 4810.560059,7564 5066.169922,7331.799805 C5202.02002,7208.399902 5342.450195,7126.200195 5489.029785,7099.399902 " transform="matrix(0.133333325,0,0,-0.133333325,-1866.179931641,1405.834472656)" fill="#0171b3"/>
										</g>
									</g>
									<g>
										<g>
											<path d="M12612,6725.899902C12308,7202.200195 11995.900391,7755.399902 11673.299805,8280.490234 C11275.700195,8927.620117 10862.099609,9531.919922 10427.900391,9896.669922 C10218.799805,10072.299805 10004.900391,10192.400391 9785.719727,10235 C10528.400391,9169.639648 11212.900391,7724.600098 11867,7068.200195 C11867,7068.200195 12061.299805,6896.899902 12061.299805,6896.899902 C12061.299805,6896.899902 13403.799805,5713.200195 13403.799805,5713.200195 C13145.099609,5941.299805 12881.700195,6303.299805 12612,6725.899902 " transform="matrix(0.133333325,0,0,-0.133333325,-1866.179931641,1405.834472656)" fill="#0171b3"/>
										</g>
									</g>
									<g>
										<g>
											<path d="M4337.700195,8373.959961C4204.850098,8619.450195 4073.909912,8882.110352 3942.969971,9144.780273 C3942.969971,9144.780273 3223.330078,9776.230469 3223.330078,9776.230469 C3223.330078,9776.230469 2504.659912,10406.799805 2504.659912,10406.799805 C2555.909912,10304 2607.159912,10201.200195 2658.52002,10099.400391 C2969.27002,9483.700195 3284.209961,8905.620117 3628.649902,8593.139648 C3628.649902,8593.139648 5066.169922,7331.799805 5066.169922,7331.799805 C4810.560059,7564 4571.180176,7942.5 4337.700195,8373.959961 " transform="matrix(0.133333325,0,0,-0.133333325,-1866.179931641,1405.834472656)" fill="#0171b3"/>
										</g>
									</g>
								</g>
								<g/>
							</g>
						</g>
					</g>
				</g>
			</g>
		</g>
	</g>
</g></g></svg>