<svg width="100%" height="100%" xmlns="http://www.w3.org/2000/svg" viewBox="0 0 100 100" stroke-width="0.5">
    <g>
        <circle cx="50" cy="50" r="49" fill="#DB7D28" stroke="#DB7D28" />

        <g>
            <path d="M23 54 C30 57 70 57 77 54 C87 52 83 30 70 30 C63 12 35 12 27 33 C15 36 13 52 23 54" fill="white" stroke="white" stroke-linejoin="round" stroke-linecap="round"/>
            <path d="M3 0 C0.5 0 0 1 0 3 C2 3 3 2 3 0" fill="#DB7D28" transform="translate(27, 43)"/>
            <path d="M3 0 C0.5 0 0 1 0 3 C2 3 3 2 3 0" fill="#DB7D28" transform="translate(41, 46)"/>
            <path d="M3 0 C0.5 0 0 1 0 3 C2 3 3 2 3 0" fill="#DB7D28" transform="translate(55, 45)"/>
            <path d="M3 0 C0.5 0 0 1 0 3 C2 3 3 2 3 0" fill="#DB7D28" transform="translate(69, 42)"/>
            <path d="M3 0 C0.5 0 0 1 0 3 C2 3 3 2 3 0" fill="#DB7D28" transform="translate(37, 28)"/>
            <path d="M3 0 C0.5 0 0 1 0 3 C2 3 3 2 3 0" fill="#DB7D28" transform="translate(48, 35)"/>
            <path d="M3 0 C0.5 0 0 1 0 3 C2 3 3 2 3 0" fill="#DB7D28" transform="translate(59, 28)"/>
        </g>
        <g fill="white">
            <path d="M 22 56 L 33 85 C 33.896678 85.224171 34.778285 85.426518 35.654297 85.617188 L 28.710938 57.84375 C 25.373998 57.372932 22.948012 56.758409 22 56 z M 78 56 C 77.051873 56.758502 74.627074 57.371617 71.291016 57.839844 L 64.347656 85.613281 C 65.222691 85.424117 66.104343 85.223914 67 85 L 78 56 z M 70.257812 57.96875 C 68.447403 58.19563 66.434653 58.388459 64.244141 58.539062 L 59.583984 86.494141 C 60.804892 86.310642 62.038658 86.091034 63.291016 85.837891 L 70.257812 57.96875 z M 29.744141 57.976562 L 36.708984 85.837891 C 37.961782 86.093397 39.194808 86.31205 40.416016 86.498047 L 35.757812 58.542969 C 33.578378 58.391681 31.546919 58.203484 29.744141 57.976562 z M 63.232422 58.605469 C 61.351794 58.722425 59.377484 58.813968 57.34375 58.876953 L 54.998047 87.027344 C 56.176736 86.932513 57.363577 86.800388 58.560547 86.638672 L 63.232422 58.605469 z M 36.767578 58.607422 L 41.439453 86.642578 C 42.63726 86.806819 43.822406 86.93257 45.001953 87.029297 L 42.65625 58.878906 C 40.625201 58.814749 38.645765 58.725489 36.767578 58.607422 z M 56.341797 58.904297 C 54.421255 58.955058 52.464392 58.984835 50.5 58.988281 L 50.5 87.232422 C 51.66173 87.223701 52.824397 87.174741 53.992188 87.099609 L 56.341797 58.904297 z M 43.658203 58.90625 L 46.009766 87.105469 C 47.177032 87.182357 48.338664 87.222034 49.5 87.232422 L 49.5 58.990234 C 47.536804 58.985639 45.577656 58.958151 43.658203 58.90625 z " />
        </g>

    </g>

</svg>