<?xml version="1.0" encoding="UTF-8" standalone="no"?>
<svg
   viewBox="0 0 1450 320"
   version="1.1"
   id="svg1"
   sodipodi:docname="pytmod-name-dark.svg"
   width="1450"
   height="320"
   inkscape:version="1.4 (e7c3feb100, 2024-10-09)"
   xmlns:inkscape="http://www.inkscape.org/namespaces/inkscape"
   xmlns:sodipodi="http://sodipodi.sourceforge.net/DTD/sodipodi-0.dtd"
   xmlns="http://www.w3.org/2000/svg"
   xmlns:svg="http://www.w3.org/2000/svg">
  <defs
     id="defs1">
    <mask
       maskUnits="userSpaceOnUse"
       id="mask2">
      <circle
         style="fill:#1a1a1a;fill-opacity:1;stroke-width:1.8;paint-order:markers fill stroke"
         id="circle2"
         cx="160"
         cy="160"
         r="160" />
    </mask>
  </defs>
  <sodipodi:namedview
     id="namedview1"
     pagecolor="#ffffff"
     bordercolor="#000000"
     borderopacity="0.25"
     inkscape:showpageshadow="2"
     inkscape:pageopacity="0.0"
     inkscape:pagecheckerboard="0"
     inkscape:deskcolor="#d1d1d1"
     inkscape:zoom="0.25"
     inkscape:cx="1152"
     inkscape:cy="-638"
     inkscape:window-width="1920"
     inkscape:window-height="1080"
     inkscape:window-x="0"
     inkscape:window-y="0"
     inkscape:window-maximized="1"
     inkscape:current-layer="svg1" />
  <path
     style="fill:#5000ca;fill-opacity:1;stroke:#000000;stroke-width:3;stroke-dasharray:none;stroke-opacity:1;paint-order:markers fill stroke"
     d="m 186.90087,16.972348 c 53.06803,10.08345 96.28909,47.93159 113.49451,99.385752 11.49235,34.36873 9.22469,74.89897 -6.03482,107.86156 l -5.41221,11.69111 -4.96725,-14.20297 c -6.44708,-18.43426 -14.27477,-34.20938 -19.42955,-39.15627 -3.26977,-3.1379 -5.26013,-3.93999 -9.777,-3.93999 -4.7313,0 -7.48273,1.2302 -16.59829,7.42136 -6.00978,4.08173 -12.21308,8.07098 -13.78512,8.86498 -4.38202,2.21326 -14.93922,1.72188 -24.15667,-1.12438 -12.5175,-3.86527 -18.08689,-4.41152 -28.47908,-2.79325 -12.54156,1.95298 -17.87998,0.46626 -24.60038,-6.85108 -6.70534,-7.30091 -11.32257,-17.3171 -21.22535,-46.04427 -14.18547,-41.150872 -19.41448,-52.705602 -25.7314,-56.859692 -2.819472,-1.85412 -3.725282,-1.9057 -6.575952,-0.37452 -7.11274,3.82048 -16.56279,29.397442 -31.26776,84.627542 -9.91129,37.22555 -21.81396,75.99728 -24.09585,78.48965 -1.50802,1.64712 -11.67811,-17.52088 -16.54027,-31.17415 -6.78098,-19.04143 -8.82039,-33.16902 -8.06261,-55.85216 0.78282,-23.43281 4.53145,-39.16076 13.94287,-58.499602 19.0377,-39.11919 53.93231,-68.03237 95.350352,-79.00597 10.51738,-2.78654 16.29989,-3.44068 33.63776,-3.80519 13.91215,-0.29249 24.08329,0.15763 30.31407,1.34154 z"
     id="path2" />
  <path
     style="fill:#5000ca;fill-opacity:1;stroke:#000000;stroke-width:3;stroke-dasharray:none;stroke-opacity:1;paint-order:markers fill stroke"
     d="m 114.79854,190.38247 c 1.27243,0.16807 4.91619,0.69757 8.09726,1.17666 l 5.78378,0.8711 3.88636,8.39752 c 5.43798,11.75012 11.79211,21.64679 16.42653,25.58465 5.96627,5.06951 9.66037,5.88822 23.48206,5.20432 7.3694,-0.36465 13.44904,-0.22994 16.35616,0.3624 4.57979,0.93315 4.66689,1.02887 8.53229,9.37464 11.40979,24.63479 18.85303,30.52601 26.78245,21.19793 4.34195,-5.1078 8.93134,-13.98938 14.51192,-28.08408 4.19967,-10.60697 4.46993,-11.00308 7.50735,-11.00308 4.59626,0 9.39826,3.82204 14.68519,11.68834 5.08335,7.5634 13.00212,22.80911 13.00212,25.0325 0,2.6333 -10.93958,13.70563 -20.8358,21.08863 -16.2784,12.14438 -37.22352,21.13295 -59.81605,25.66998 -10.24003,2.0564 -13.27972,2.27126 -32.13152,2.27126 -18.79825,0 -21.90844,-0.21841 -32.00682,-2.24766 -28.6563,-5.75845 -54.758852,-18.43242 -70.847462,-34.39966 l -5.05865,-5.02048 2.13524,-3.2715 c 2.47314,-3.78924 12.3991,-28.0923 19.73479,-48.3194 4.30737,-11.87694 5.4396,-14.05012 7.52526,-14.44382 1.35025,-0.25488 5.58859,-2.18439 9.4185,-4.2878 10.630812,-5.83851 16.686972,-7.65368 22.829042,-6.84245 z"
     id="path3" />
  <text
     xml:space="preserve"
     style="font-size:266.667px;font-family:'Crimson Text';-inkscape-font-specification:'Crimson Text';text-align:center;writing-mode:lr-tb;direction:ltr;text-anchor:middle;fill:#ffffff;stroke:#000000;stroke-width:3;paint-order:markers fill stroke;fill-opacity:1"
     x="942"
     y="234"
     id="text1"><tspan
       sodipodi:role="line"
       id="tspan1"
       x="942"
       y="234"
       style="font-style:normal;font-variant:normal;font-weight:800;font-stretch:normal;font-size:266.667px;font-family:Georama;-inkscape-font-specification:'Georama Ultra-Bold';fill:#ffffff;fill-opacity:1;stroke:none">pytmod</tspan></text>
</svg>
